<?xml version="1.0" standalone="yes"?>
<svg xmlns="http://www.w3.org/2000/svg" height="80" width="550" style="zoom: 1;" >
  <g id="main_group">
    <line stroke="#000000" y1="50" x1="15" y2="0" x2="15"></line>
    <line stroke="#000000" y1="50" x1="15" y2="50" x2="65"></line>
    <line stroke="#000000" y1="0"  x1="150" y2="0" x2="150"></line>
    <line stroke="#000000" y1="0"  x1="85" y2="50" x2="85"></line>
    <line stroke="#000000" y1="0"  x1="65" y2="50" x2="65"></line>
    <line stroke="#000000" y1="50" x1="85" y2="50" x2="135"></line>
    <line stroke="#000000" y1="0"  x1="135" y2="50" x2="135"></line>
    <line stroke="#000000" y1="0"  x1="175" y2="50" x2="175"></line>
    <line stroke="#000000" y1="50" x1="175" y2="50" x2="225"></line>
    <line stroke="#000000" y1="0"  x1="225" y2="50" x2="225"></line>
    <line stroke="#000000" y1="0"  x1="245" y2="50" x2="245"></line>
    <line stroke="#000000" y1="50" x1="245" y2="50" x2="295"></line>
    <line stroke="#000000" y1="0"  x1="295" y2="50" x2="295"></line>
    <line stroke="#000000" y1="0"  x1="335" y2="50" x2="335"></line>
    <line stroke="#000000" y1="50" x1="335" y2="50" x2="385"></line>
    <line stroke="#000000" y1="0"  x1="385" y2="50" x2="385"></line>

    <line stroke="#000000" y1="0"  x1="0" y2="0" x2="15"></line>
    <line stroke="#000000" y1="0"  x1="65" y2="0" x2="85"></line>
    <line stroke="#000000" y1="0"  x1="135" y2="0" x2="175"></line>
    <line stroke="#000000" y1="0"  x1="225" y2="0" x2="245"></line>
    <line stroke="#000000" y1="0"  x1="295" y2="0" x2="335"></line>
    <line stroke="#000000" y1="0"  x1="385" y2="0" x2="550"></line>

    <rect stroke="FFFFFFF" fill="FFFFFFF" y="69" x="0" height="2" width="425"></rect>
  </g>

</svg>
