<?xml version="1.0" standalone="yes"?>
<svg xmlns="http://www.w3.org/2000/svg" height="80" width="650" style="zoom: 1;" >
  <g id="main_group">
    <line stroke="#000000" y1="50" x1="115" y2="0" x2="115"></line>
    <line stroke="#000000" y1="50" x1="115" y2="50" x2="165"></line>
    <line stroke="#000000" y1="0"  x1="250" y2="0" x2="250"></line>
    <line stroke="#000000" y1="0"  x1="185" y2="50" x2="185"></line>
    <line stroke="#000000" y1="0"  x1="165" y2="50" x2="165"></line>
    <line stroke="#000000" y1="50" x1="185" y2="50" x2="235"></line>
    <line stroke="#000000" y1="0"  x1="235" y2="50" x2="235"></line>
    <line stroke="#000000" y1="0"  x1="275" y2="50" x2="275"></line>
    <line stroke="#000000" y1="50" x1="275" y2="50" x2="325"></line>
    <line stroke="#000000" y1="0"  x1="325" y2="50" x2="325"></line>
    <line stroke="#000000" y1="0"  x1="345" y2="50" x2="345"></line>
    <line stroke="#000000" y1="50" x1="345" y2="50" x2="395"></line>
    <line stroke="#000000" y1="0"  x1="395" y2="50" x2="395"></line>
    <line stroke="#000000" y1="0"  x1="435" y2="50" x2="435"></line>
    <line stroke="#000000" y1="50" x1="435" y2="50" x2="485"></line>
    <line stroke="#000000" y1="0"  x1="485" y2="50" x2="485"></line>

    <line stroke="#000000" y1="0"  x1="00" y2="0" x2="115"></line>
    <line stroke="#000000" y1="0"  x1="165" y2="0" x2="185"></line>
    <line stroke="#000000" y1="0"  x1="235" y2="0" x2="275"></line>
    <line stroke="#000000" y1="0"  x1="325" y2="0" x2="345"></line>
    <line stroke="#000000" y1="0"  x1="395" y2="0" x2="435"></line>
    <line stroke="#000000" y1="0"  x1="485" y2="0" x2="650"></line>

    <rect stroke="FFFFFFF" fill="FFFFFFF" y="69" x="50" height="2" width="500"></rect>
  </g>

</svg>
